<?xml version="1.0" standalone="no"?>
<!DOCTYPE svg PUBLIC "-//W3C//DTD SVG 20010904//EN"
 "http://www.w3.org/TR/2001/REC-SVG-20010904/DTD/svg10.dtd">
<svg version="1.0" xmlns="http://www.w3.org/2000/svg"
 width="500.000000pt" height="500.000000pt" viewBox="0 0 500.000000 500.000000"
 preserveAspectRatio="xMidYMid meet">

<g transform="translate(0.000000,500.000000) scale(0.100000,-0.100000)"
fill="#166534" stroke="none">
<path d="M2340 4023 c-157 -24 -318 -84 -429 -157 -239 -159 -388 -460 -368
-745 13 -176 113 -382 237 -488 l43 -37 -35 46 c-119 156 -188 367 -188 578 0
213 51 354 166 459 205 187 534 267 815 197 177 -44 302 -118 431 -254 83 -88
129 -165 170 -283 30 -88 32 -103 32 -234 1 -121 -2 -150 -22 -210 -57 -171
-167 -320 -301 -410 -38 -25 -73 -45 -79 -45 -6 0 -13 -4 -17 -9 -9 -16 65 9
140 45 269 132 444 407 447 701 1 87 10 117 22 76 33 -114 0 -360 -69 -520
-30 -70 -6 -43 37 41 75 148 100 377 58 542 -92 359 -398 629 -795 700 -73 13
-234 17 -295 7z"/>
<path d="M2082 3711 c-112 -39 -184 -83 -263 -161 -225 -221 -224 -563 1 -804
101 -107 272 -207 381 -221 l44 -6 -64 30 c-175 84 -301 224 -357 398 -25 76
-30 284 -9 363 42 163 169 321 315 392 90 44 66 49 -48 9z"/>
<path d="M2487 3547 c-3 -8 -1 -20 4 -28 8 -12 10 -12 19 1 5 8 8 19 7 24 -5
16 -24 18 -30 3z"/>
<path d="M2385 3508 c-9 -25 11 -73 32 -76 20 -3 53 21 53 39 0 32 -75 65 -85
37z"/>
<path d="M2562 3513 c-42 -17 -32 -83 13 -83 19 0 26 7 33 33 14 51 -2 68 -46
50z"/>
<path d="M2462 3410 c-31 -26 -32 -28 -32 -113 0 -47 -4 -88 -9 -91 -5 -4 -50
-9 -99 -12 -85 -6 -92 -9 -112 -36 -19 -26 -20 -32 -7 -46 8 -9 17 -25 20 -34
5 -14 22 -18 104 -20 l98 -3 3 -100 3 -100 32 -21 32 -20 38 24 37 25 0 98 0
99 94 0 94 0 26 35 27 35 -23 30 c-20 25 -30 29 -74 29 -28 1 -72 4 -98 7
l-46 7 0 92 0 91 -38 25 -39 26 -31 -27z"/>
<path d="M2100 3221 c0 -49 48 -79 78 -49 29 29 -3 78 -51 78 -23 0 -27 -4
-27 -29z"/>
<path d="M2832 3239 c-18 -7 -23 -15 -20 -35 7 -63 71 -55 76 10 3 39 -8 45
-56 25z"/>
<path d="M2065 3131 c-3 -5 -1 -12 5 -16 14 -9 52 4 45 16 -8 12 -42 12 -50 0z"/>
<path d="M2886 3131 c-8 -12 20 -22 39 -15 19 8 9 24 -15 24 -10 0 -21 -4 -24
-9z"/>
<path d="M2120 3080 c-11 -11 -20 -29 -20 -40 0 -16 7 -20 33 -20 52 0 73 32
41 64 -20 21 -30 20 -54 -4z"/>
<path d="M2826 3087 c-11 -8 -17 -23 -14 -38 2 -20 9 -25 41 -27 35 -3 37 -2
37 27 0 20 -7 34 -19 41 -25 13 -24 13 -45 -3z"/>
<path d="M2405 2806 c-9 -6 -17 -27 -18 -46 -2 -44 23 -51 58 -16 21 21 24 30
16 45 -14 25 -36 32 -56 17z"/>
<path d="M2545 2796 c-13 -19 -14 -29 -5 -45 14 -26 59 -39 71 -20 11 18 1 61
-19 77 -22 17 -29 15 -47 -12z"/>
<path d="M2490 2715 c0 -25 14 -34 24 -16 8 12 -3 41 -15 41 -5 0 -9 -11 -9
-25z"/>
<path d="M3120 2468 c-11 -18 -20 -39 -20 -46 0 -8 -12 -43 -26 -78 -14 -36
-23 -68 -20 -71 3 -3 30 7 60 22 62 31 73 51 78 145 3 53 2 55 -24 58 -22 3
-32 -3 -48 -30z"/>
<path d="M3395 2387 c-33 -18 -94 -55 -135 -83 -111 -76 -240 -146 -375 -205
-117 -51 -123 -53 -215 -53 -104 0 -216 23 -269 55 -36 22 -39 34 -12 49 28
14 113 14 296 0 88 -8 172 -10 187 -7 18 5 35 21 48 45 11 20 36 56 55 80 72
90 27 127 -54 46 l-46 -47 -105 17 c-58 9 -159 31 -225 48 -251 64 -334 72
-450 43 -182 -46 -405 -211 -562 -415 -48 -63 -134 -203 -128 -208 2 -3 22 11
44 30 54 46 177 105 270 130 98 26 303 35 409 18 93 -14 250 -51 392 -92 158
-45 164 -44 326 47 328 184 516 311 662 447 58 54 55 82 -8 86 -35 1 -58 -5
-105 -31z"/>
<path d="M1583 1663 c-22 -4 -22 -8 -25 -181 -2 -97 1 -185 5 -194 4 -10 19
-18 32 -18 24 0 25 3 25 54 0 30 4 58 10 61 5 3 26 -19 45 -49 27 -40 44 -55
67 -60 16 -3 34 -3 39 0 5 3 -14 37 -41 76 -30 43 -47 75 -42 82 5 6 25 32 45
57 20 25 37 49 37 53 0 3 -15 6 -34 6 -30 0 -40 -7 -67 -45 -51 -70 -59 -62
-59 60 0 58 -3 104 -7 104 -5 -1 -18 -4 -30 -6z"/>
<path d="M2578 1663 c-16 -4 -18 -21 -18 -183 0 -173 1 -179 22 -194 32 -23
88 -21 88 2 0 11 -11 24 -25 30 -24 11 -25 12 -27 178 -2 101 -7 168 -13 169
-5 2 -18 1 -27 -2z"/>
<path d="M3430 1657 c-18 -9 -28 -26 -36 -57 -8 -34 -16 -46 -32 -48 -31 -5
-31 -49 1 -54 21 -3 22 -8 27 -113 3 -60 8 -109 13 -107 4 1 16 2 27 2 18 0
20 8 22 107 l3 107 33 8 c44 12 46 48 2 48 -26 0 -30 3 -30 29 0 29 14 41 51
41 24 0 37 29 18 41 -20 13 -70 11 -99 -4z"/>
<path d="M3848 1663 c-16 -4 -18 -22 -18 -193 0 -104 4 -191 8 -194 5 -3 18
-3 30 1 20 5 22 12 24 111 3 87 6 107 21 116 12 8 22 8 35 0 14 -9 17 -29 20
-118 l3 -106 29 0 30 0 0 118 c0 108 -2 121 -21 138 -14 13 -35 19 -65 18
l-43 -1 -7 59 c-6 57 -10 61 -46 51z"/>
<path d="M972 1622 c-9 -6 -12 -48 -10 -173 l3 -164 32 -3 32 -3 3 68 c4 90
23 95 63 16 39 -78 53 -93 87 -93 36 0 35 13 -7 83 -19 32 -35 61 -35 66 0 4
11 18 24 30 47 44 41 122 -11 157 -28 18 -161 30 -181 16z m141 -74 c22 -26
21 -34 -3 -58 -24 -24 -65 -26 -74 -4 -11 27 -6 82 7 87 19 8 51 -3 70 -25z"/>
<path d="M2324 1623 c-6 -5 -19 -35 -28 -68 -10 -33 -22 -71 -26 -85 -5 -14
-18 -61 -30 -104 -23 -86 -18 -103 23 -92 19 4 27 16 34 43 l9 38 53 0 54 0
11 -40 c9 -33 16 -41 39 -43 17 -2 29 2 33 11 5 13 -22 114 -75 282 -18 57
-21 60 -52 63 -19 1 -39 -1 -45 -5z m55 -130 c19 -67 15 -83 -19 -83 -20 0
-30 5 -30 16 0 28 22 104 31 104 4 0 13 -17 18 -37z"/>
<path d="M2861 1604 c-27 -22 -31 -32 -31 -74 0 -44 4 -52 33 -74 17 -13 48
-31 69 -39 39 -17 57 -49 38 -72 -13 -16 -72 -19 -105 -6 -24 10 -45 -4 -45
-29 0 -26 52 -43 117 -38 48 4 61 10 85 37 55 61 30 130 -61 170 -28 12 -56
31 -62 43 -17 31 21 62 65 52 59 -14 71 -11 71 16 0 28 -23 37 -97 39 -36 1
-53 -5 -77 -25z"/>
<path d="M1897 1550 c-20 -4 -40 -9 -43 -12 -3 -3 -5 -64 -6 -134 l0 -129 28
0 29 0 5 115 c5 106 7 115 25 118 43 5 50 -11 50 -119 1 -82 4 -104 16 -112 9
-6 24 -7 33 -4 13 5 16 24 16 116 0 60 -3 117 -6 126 -15 37 -70 50 -147 35z"/>
<path d="M3145 1553 c-31 -8 -40 -20 -25 -37 8 -10 21 -14 36 -10 13 3 35 3
49 0 19 -5 25 -13 25 -35 0 -26 -4 -29 -47 -35 -89 -12 -124 -86 -67 -143 24
-24 31 -25 93 -21 38 3 73 8 80 12 15 9 15 197 0 229 -18 40 -76 56 -144 40z
m83 -197 c-4 -37 -35 -47 -62 -20 -21 20 -17 35 14 51 34 17 52 6 48 -31z"/>
<path d="M3592 1553 c-28 -5 -40 -32 -21 -43 7 -5 31 -8 52 -8 43 0 61 -11 55
-38 -2 -13 -16 -21 -48 -26 -88 -15 -124 -95 -65 -146 26 -22 35 -24 98 -19
37 2 73 9 79 15 6 6 9 52 6 116 -3 92 -6 108 -24 127 -22 22 -85 32 -132 22z
m86 -195 c-3 -29 -7 -33 -32 -33 -36 0 -56 26 -37 49 8 9 27 16 43 16 27 0 29
-2 26 -32z"/>
<path d="M1270 1439 c0 -109 0 -111 29 -140 23 -22 39 -29 69 -29 40 0 102 17
103 28 0 4 1 61 2 127 l2 120 -32 3 c-22 2 -33 -1 -34 -10 0 -7 0 -53 1 -103
0 -102 -7 -121 -43 -111 -31 7 -37 29 -37 139 l0 87 -30 0 -30 0 0 -111z"/>
<path d="M1775 1150 c-10 -16 7 -31 23 -21 10 6 10 10 -2 20 -10 9 -16 9 -21
1z"/>
<path d="M1850 1130 c0 -30 -14 -41 -23 -17 -2 6 -7 10 -10 7 -3 -3 5 -19 18
-35 l24 -30 1 53 c0 28 -2 52 -5 52 -3 0 -5 -13 -5 -30z"/>
<path d="M1920 1112 c0 -29 4 -52 9 -52 8 0 3 90 -5 99 -2 2 -4 -19 -4 -47z"/>
<path d="M2023 1110 c0 -30 2 -43 4 -27 2 15 2 39 0 55 -2 15 -4 2 -4 -28z"/>
<path d="M2088 1154 c-10 -19 -8 -84 3 -84 7 0 9 9 5 24 -7 28 12 47 25 24 4
-8 17 -26 28 -39 l20 -24 -1 50 c0 28 -3 38 -5 23 -5 -36 -11 -35 -43 4 -15
17 -29 27 -32 22z"/>
<path d="M2225 1150 c-3 -5 -1 -10 4 -10 6 0 11 5 11 10 0 6 -2 10 -4 10 -3 0
-8 -4 -11 -10z"/>
<path d="M2403 1115 c0 -27 2 -38 4 -22 2 15 2 37 0 50 -2 12 -4 0 -4 -28z"/>
<path d="M2676 1144 c-9 -24 -7 -27 9 -10 17 17 19 26 6 26 -5 0 -12 -7 -15
-16z"/>
<path d="M2787 1140 c-10 -37 -8 -70 3 -70 6 0 10 7 10 15 0 22 25 18 41 -6
13 -19 14 -18 14 20 0 22 -4 43 -8 47 -4 4 -7 0 -7 -9 0 -9 -4 -17 -10 -17 -5
0 -13 0 -17 -1 -5 0 -11 10 -14 23 l-5 23 -7 -25z"/>
<path d="M2910 1110 c0 -29 2 -51 4 -49 8 8 10 88 3 95 -4 4 -7 -17 -7 -46z"/>
<path d="M2990 1130 c-12 -29 -40 -42 -40 -18 0 6 -3 9 -6 6 -3 -4 1 -19 9
-34 l15 -28 18 35 18 34 7 -35 c6 -31 7 -30 8 18 1 58 -10 67 -29 22z"/>
<path d="M3100 1144 c0 -8 4 -13 9 -9 12 7 34 -31 27 -44 -3 -5 1 -12 10 -15
12 -5 14 -1 8 17 -16 51 -54 87 -54 51z"/>
<path d="M3205 1136 c-18 -27 -11 -52 19 -67 19 -9 19 -9 4 4 -21 16 -24 57
-6 75 7 7 9 12 5 12 -3 0 -13 -11 -22 -24z"/>
<path d="M3377 1153 c-4 -3 -7 -11 -7 -17 0 -6 5 -5 12 2 6 6 9 14 7 17 -3 3
-9 2 -12 -2z"/>
<path d="M1637 1143 c-14 -13 -7 -61 11 -74 15 -13 16 -12 3 3 -7 10 -11 31
-9 48 5 32 5 33 -5 23z"/>
<path d="M2454 1142 c4 -7 2 -19 -4 -27 -9 -11 -9 -15 -1 -15 18 0 25 30 11
43 -10 9 -11 9 -6 -1z"/>
<path d="M2515 1129 c4 -42 5 -44 14 -31 14 22 54 10 62 -18 5 -18 7 -11 7 25
0 28 -2 42 -5 33 -6 -23 -52 -24 -68 -1 -11 15 -12 14 -10 -8z"/>
<path d="M3330 1148 c0 -2 6 -20 14 -42 12 -34 14 -36 18 -15 2 15 -3 31 -14
42 -10 9 -18 16 -18 15z"/>
<path d="M1708 1106 c-2 -20 0 -36 4 -36 13 0 21 51 10 62 -6 6 -11 -2 -14
-26z"/>
<path d="M2223 1114 c-7 -19 0 -47 13 -51 7 -2 10 5 7 21 -4 20 0 25 18 28 23
3 22 4 -4 10 -19 4 -30 1 -34 -8z"/>
<path d="M2710 1103 c0 -12 5 -25 11 -28 17 -11 18 -2 4 25 -14 24 -14 24 -15
3z"/>
<path d="M3082 1100 c-11 -29 -9 -35 11 -23 10 5 12 15 7 28 -7 19 -8 19 -18
-5z"/>
<path d="M1774 1099 c-3 -6 -1 -16 5 -22 8 -8 11 -5 11 11 0 24 -5 28 -16 11z"/>
<path d="M2657 1104 c-4 -4 -7 -17 -7 -28 1 -19 1 -20 11 -3 11 19 8 43 -4 31z"/>
</g>
</svg>
