<?xml version="1.0" encoding="UTF-8"?>
<svg version="1.1" viewBox="0 0 2000 2000" width="500" height="500" xmlns="http://www.w3.org/2000/svg">
<path transform="translate(1394,1028)" d="m0 0h12l9 3 7 6 2 3v9l-8 10-14 13-11 9-7 7-14 11-8 7-32 24-20 14-16 11-14 10-20 13-28 17-21 13-23 13-32 17-24 14-16 9-16 10-12 5-14 4h-17l-26-6-34-10-41-11-58-14-40-8-30-4-27-2h-25l-28 2-30 4-29 6-26 8-21 8-27 13-20 12-14 10-14 12-10 7-1-4 10-19 9-16 12-20 12-17 11-15 12-16 9-10 8-10 11-12 7-7 4-5 8-7 9-9 11-9 15-13 19-14 15-11 18-11 24-13 19-9 28-10 18-5 25-4h39l26 3 20 4 66 18 39 9 37 7 50 8 5-1 11-14 11-12 8-6 8-4h12l5 4 1 2v8l-8 16-8 14-5 7-5 5-5 4h-2l-3-3 1 2-1 9-6 14-5 6-7 3-3 1h-50l-47-4-38-4h-39l-15 3-10 5 1 6 5 5 17 8 15 5 25 6 28 4 11 1h26l26-4 17-5 33-15 30-13 23-11 22-12 21-12 24-14 60-40 15-9 21-11 15-5z" fill="#70BB21"/>
<path transform="translate(959,387)" d="m0 0h59l26 2 32 6 30 8 36 12 25 11 17 8 27 16 16 11 13 10 11 9 14 12 16 15 7 7 7 8 11 13 13 18 14 21 12 21 11 22 10 26 6 19 6 27 4 24 2 29v16l-2 24-7 39-8 32-9 24-13 27-11 18-10 15-13 17-8 9-2-1 6-11 11-18 11-21 10-24 8-25 8-32 6-37 2-22v-42l-2-21-4-17-1-2v53l-2 24-5 24-6 24-9 26-9 20-12 23-11 17-8 11-13 17-12 14-19 19-11 9-17 13-21 14-14 8-24 12-23 9-22 6-26 5h-5v-2l23-8 29-14 18-11 16-12 13-11 13-12 16-17 12-15 12-18 9-15 13-26 10-26 8-28 4-22 2-22v-39l-2-23-6-31-9-29-11-28-10-19-13-21-10-13-8-10-11-13-21-21-11-9-13-11-18-13-19-12-22-12-27-11-28-9-29-7-23-4-31-3h-37l-29 3-31 6-32 9-26 9-28 12-22 12-19 12-26 20-13 12-12 12-10 15-13 25-11 28-7 28-3 18-2 43v14l2 39 4 26 7 29 8 26 10 27 12 25 10 19 14 22 11 13 12 13 4 5 8 7 3 4-6-1-14-9-14-12-12-11-12-12-9-11-11-15-11-17-12-22-8-17-10-27-7-24-4-19-3-24v-44l3-29 6-29 7-24 9-24 9-20 10-19 9-14 12-17 13-17 11-13 15-16 8-7 10-9 20-15 15-10 15-9 21-11 31-13 28-10 27-7 24-5 24-3z" fill="#70BB21"/>
<path transform="translate(916,495)" d="m0 0h2v2l-20 6-18 6-21 9-16 8-11 6-19 13-14 12-13 13-9 11-8 10-16 24-8 15-10 24-6 19-5 20-2 16-1 17v26l2 27 3 19 6 23 8 22 12 25 10 16 12 16 9 11 9 10 14 14 14 11 15 11 15 9 21 11 29 11 21 6 40 7 1 2h-14l-18-1-49-8-28-8-25-10-17-8-21-12-19-13-12-9-10-8-10-9-8-7-7-8-9-10-13-17-10-15-8-14-8-15-6-16-8-28-4-22-2-20v-14l4-29 3-15 6-20 8-20 13-26 12-18 9-11 12-14 8-8 11-9 13-10 22-14 18-10 11-5 23-9 24-7 27-6 19-3z" fill="#70BB21"/>
<path transform="translate(998,617)" d="m0 0h2l6 10 5 5 5 4 12 6 1 77 76 1 5 6 6 9 5 5 8 7v3l-6 4-7 8-8 13-2 2-76 2-2 82-12 4-8 6-5 6-3 5-4-4-3-5-11-8-12-4-1-1-2-81-76-2-3-4-3-9-9-10-7-5 5-5 5-4 7-10 5-9 12-1 50-1 14-1 2-65 2-12 5-3 10-5 9-10z" fill="#70BB21"/>
<path transform="translate(408,1346)" d="m0 0h14l21 2 14 4 10 6 8 9 4 8 2 9v9l-3 15-6 9-6 7-9 6 2 5 14 25 10 17 4 8 1 7-1 1h-21l-10-1-4-5-19-38-7-12v-2h-11v44l-1 10-2 2h-24l-3-1-1-2-1-15-1-121 1-3 11-2zm12 25-5 2v29l1 7 2 1h14l11-6 4-5 2-9-2-8-8-7-7-3z" fill="#70BB21"/>
<path transform="translate(682,547)" d="m0 0h2l-2 5-1 3-3 3 1 4-12 22-10 24-5 15-6 26-2 13-2 43v14l2 39 4 26 7 29 8 26 10 27 12 25 10 19 14 22 11 13 12 13 4 5 8 7 3 4-6-1-14-9-14-12-12-11-12-12-9-11-11-15-11-17-12-22-8-17-10-27-7-24-4-19-3-24v-44l3-29 6-29 7-24 9-24 9-20 10-19 4-2 1-3 3 1h-2l2 6-1 3 2 1 1-2h1l1-4 7-10 2-3h2z" fill="#70BB21"/>
<path transform="translate(928,1347)" d="m0 0h33l2 1 13 42 9 30 7 25 11 37 1 9-8 1h-21l-3-1-5-16-5-17h-33l-4 1-6 24-3 7-1 1-25 1-5-1 4-20 15-56 9-30 9-31 4-6zm15 42-2 2-9 39v4h24l-1-10-7-30-3-5z" fill="#70BB21"/>
<path transform="translate(643,1331)" d="m0 0h7l1 1 1 84h3l12-15 12-18 6-5 11-1h23l-2 4-10 12-9 13-14 18-4 6 1 5 12 15 14 21 9 13 3 5v2l-7 1h-23l-5-2-9-12-15-25-4-5-4-1v44l-5 1h-19l-7-2-1-3v-33l1-119 7-2z" fill="#70BB21"/>
<path transform="translate(1547,1331)" d="m0 0h11l1 1 1 47 11-4 11-1 13 3 8 4 5 4 4 6 3 12v85l-3 2-9 1h-16l-1-1-1-49v-31l-3-8-3-3-10-1-8 4-1 1-1 87-1 1h-28l-1-1-1-134 1-21 3-2z" fill="#70BB21"/>
<path transform="translate(1166,1345)" d="m0 0h21l16 3 10 4 8 6-8 18-2 3-8-1-20-6h-12l-8 4-3 4-1 5 3 8 8 6 10 5 16 7 14 9 7 8 4 9 1 7v12l-2 10-6 10-7 7-10 6-11 4-12 2h-11l-14-2-18-6-6-4-1-5 8-16 3-4 5 1 12 5 13 2h11l7-3 5-5 1-8-3-6-8-6-11-5-9-4-12-7-10-9-5-6-3-12v-15l3-12 7-10 8-7 10-4z" fill="#70BB21"/>
<path transform="translate(1272,1374)" d="m0 0h16l12 3 8 4 5 4 6 10 3 14v72l-3 5-10 4-22 4-17 1-12-2-9-4-8-6-6-9-3-12 1-11 4-11 5-6 11-7 19-4 15-2 3-2v-10l-3-6-1-3h-37l-8-9-2-6 6-4 20-6zm10 69-9 2-6 4-4 4v6l4 6 6 4 4 1h9l4-3 1-11v-9l-3-3z" fill="#70BB21"/>
<path transform="translate(1450,1374)" d="m0 0h17l12 3 10 5 6 7 4 10 1 5 1 14v66l-4 4-18 4-19 2h-17l-13-4-9-7-7-10-2-6v-16l7-14 8-7 11-5 14-3 15-2 1-1v-12l-3-5-2-1h-32l-5-3-6-9-1-4 8-5 16-5zm5 70-8 4-4 5-1 4 3 8 5 5 5 2h7l5-3 2-2 2-10v-11l-2-2z" fill="#70BB21"/>
<path transform="translate(773,1375)" d="m0 0h20l13 4 7 5 6 9 3 8 1 13v77l-21 1-9-1-1-1-1-81-4-7-7-4-9 1-4 1v89l-1 2h-30l-1-5v-99l4-4 8-3 20-4z" fill="#70BB21"/>
<path transform="translate(513,1378)" d="m0 0h22l1 79 3 7 4 3 8 2h6l2-1 1-15v-72l3-3h28l1 1v103l-4 4-20 6-12 2h-17l-13-4-9-7-7-8-4-11-1-7-1-76 2-2z" fill="#70BB21"/>
<path transform="translate(1386,1330)" d="m0 0h14l13 2 6 4-1 7-6 10-2 2-19 1-4 4-2 8 1 9 2 1 21 1 1 2-1 12-2 6-4 1-13 1-6 1-1 85-1 3-2 1-21 1-6-2-1-11v-76l-16-2-2-2-1-6v-12l3-2 16-1 3-21 3-10 6-8 5-4 9-4z" fill="#70BB21"/>
<path transform="translate(1047,1331)" d="m0 0 4 2v131l1 4 11 4 6 2 1 2v12l-3 5-7 2-15-1-13-5-6-5-5-8-1-4v-128l1-9 5-2z" fill="#70BB21"/>
<path transform="translate(1265,996)" d="m0 0h9l6 4 1 2v11l-6 44-5 12-4 5-15 8-23 11-6 3-5-1-1-3 2-9 11-26 13-38 6-11 8-8z" fill="#68AD21"/>
<path transform="translate(1372,697)" d="m0 0 3 2 1 6-1 3 2 2v-2l2-5 2 3 2 17 1 19v16l-2 24-7 39-8 32-9 24-13 27-11 18-10 15-13 17-8 9-2-1 6-11 11-18 11-21 10-24 8-25 8-32 6-37 2-22v-61l3 4v13l2-2 1 4h-2l-2 24h2l1-2 1 4 3-6 4-2h3l1-5h-3l1 3h-2l-2-13-3-4 1-10-2-7-1-1v-7z" fill="#68AE21"/>
<path transform="translate(845,416)" d="m0 0 9 1-4 5-7 7h-2v2l-2 1 1 1 2 1-5 4h-3v-2l-6 1-2 8-7 1-4 2-2-1v2h-2v2l-7 2-5 3h-2v2l-12 6-6 4-2-1 6-5 8-8 4-2 7 1 2-7 5-5v-2h2v-3l11-2 7-6-1-2h-2l-3 4-8 3-3 1v-2h-2l-1 3-4 1-1 3-8 6h-3v2l-6 4-6 2-10 3-2 4-4 3-1 6h-2l-1 3-7 1-5 5 2 2-8 4-4 5h-2l-1 4h-2l-1 3-8 6-6 3-3 2-1 4-3 1-3 3-4 2-3 1-2 4h-2l-1 4-3 1v2l-10 10h-2l-1 4-3 3-2 5h-2l-2 4-5-1 2-7 13-18 10-13 11-13 15-16 8-7 10-9 20-15 15-10 20-12h4v2l8-2 2-4 6 1 1-4 5-1 7-3h6l1-3 4-1 10-1z" fill="#68AE21"/>
<path transform="translate(916,495)" d="m0 0h2v2l-20 6-18 6-21 9-16 8-9 5-3-1 2-3h2v-2l-7 1-2-1v2l-3 1-1 2-11 3-10 5-5 3-3 3-7 2v2l-5 2-4 2v2h-2l-2 4-3 7 8-6 5-4 4-1 1-3 9-6 2-2h3v2l2 1h-2v2h-2v3l-4 4-10 3v2l-6 4-2 1v-2l-2 2v3l-4 3h-5l-3 4h-2v-2l-6-1-1 3-8 4-4-2-3 3h-4-2l-2 4h-2v-7-3l2-1 2-5 10-9 20-14 15-9 16-9 11-5 23-9 24-7 27-6 19-3z" fill="#68AD21"/>
<path transform="translate(1247,914)" d="m0 0 4 2-1 3h-2l-2 4-6 8-3 8-3 1v3l2 2v7l-5 5-7 9-1 3h-2l-1 6-2 1-1 3-2 2h-3v2h-2v2l-5 2-1-3 4-1 2-4v-3h-2l-4 7h-2l-1 5 1 3-2 3h-2l-2 4-1 4-32 16-23 9-22 6-26 5h-5v-2l23-8 29-14 18-11 16-12 13-11 13-12 16-17 12-15 12-18 8-2z" fill="#68AE21"/>
<path transform="translate(628,815)" d="m0 0 5 1 2 7v5l4 1 2 5h-2v2h2l-1 3 3 1v4l4 2 1 6 2-1-2-1v-4-3h6v2h-2l1 5 2-3 2-4 2 3 1 3 3 3v4 2l7 2 4 8 11 23 10 19 14 22 11 13 12 13 4 5 8 7 3 4-6-1-14-9-14-12-12-11-12-12-9-11-11-15-11-17-12-22-8-17-10-27z" fill="#68AE21"/>
<path transform="translate(1394,1028)" d="m0 0h12l9 3 7 6 2 3v9l-2 3-11 1-4-2-10 2 1-4h-10l-2-1h-12l-1 3v-2l-9 2h-2v2l-2 1-1 4 9-2 1 2-10 5-5 2h-14v2h-2v2l4 1-5 1v-2l-8 2 2-4 1-3h-2v2l-6 3-3 2-8 2 1-3 10-4 6-5 2-2 3-2 2-1 2-4 21-12 17-8 10-3z" fill="#68AD21"/>
<path transform="translate(1376,801)" d="m0 0h1v9l-6 28-5 17-8 22-13 27-11 18-10 15-13 17-8 9-2-1 6-11 11-18 11-21 10-24 8-25 4-15h3v5h-2l-1 7h4l-2 1h3l1-5-2-3h2l1-3 3-1 3 1v-12l3-12 3-9 2-11 1-3z" fill="#69AE21"/>
<path transform="translate(1163,1534)" d="m0 0 8 1 6 8 7 14 1 3 3-1 6-15 6-9 2-1h7l1 2 2 32v9l-7 1-2-1-1-3v-22h-2l-3 9-8 16-5-1-4-5-11-27v32l-5 2-4-2v-40z" fill="#70BB21"/>
<path transform="translate(840,699)" d="m0 0h21l8 3 6 7 3 8-1 9-4 6-6 5-3 1h-10l-8-4-7-9-3-9v-11l2-5z" fill="#68AD21"/>
<path transform="translate(1024,871)" d="m0 0h10l6 3 5 8 3 9 1 9-2 9-4 4-5 1-15-3-6-4-5-8-2-10 6-12 6-5z" fill="#68AE21"/>
<path transform="translate(1037,589)" d="m0 0 9 1 2 4v17l-4 11-7 8-5 2-9-2-8-6-4-7-1-8 5-10 6-5 10-4z" fill="#68AD21"/>
<path transform="translate(1145,699)" d="m0 0h8l5 1 1 2v19l-3 9-6 6-3 1h-15l-7-5-4-7-1-7 2-8 7-8 6-2z" fill="#68AD21"/>
<path transform="translate(968,871)" d="m0 0 9 2 8 7 4 9-1 6-6 9-7 6-12 4h-6l-4-2-2-4v-17l4-11 6-7z" fill="#68AD21"/>
<path transform="translate(955,590)" d="m0 0h12l10 4 7 5 4 8v11l-7 8-8 5-7 1-5-2-6-7-4-13v-12l2-7z" fill="#70BB21"/>
<path transform="translate(1190,1053)" d="m0 0h12l5 4 1 2v8l-8 16-6 10-4 1v2l-5 1-2-1-1-3-8 3-3-1 2-2 10-5 3-1 2-4 3-4h2l2-4h2v-2l3-3v-5l-6 2-5 4-2 4-6 5-4 5-5-2-3-2-1 2 3 1v3l-2 2v3l-7 1-1-3-3 1v2l-4-2-1-4 8-9 8-10 8-8z" fill="#68AD21"/>
<path transform="translate(1136,759)" d="m0 0h9l8 5 4 5 2 5 1 6v12l-3 3-5 1h-9l-11-2-7-4-4-6-1-8 4-8 8-7z" fill="#68AD21"/>
<path transform="translate(857,759)" d="m0 0h8l8 6 5 9v8l-4 6-5 4-12 3h-18l-1-1v-18l3-7 5-5 8-4z" fill="#68AD21"/>
<path transform="translate(579,1430)" d="m0 0 2 8v16l3 7 1 9-5 5-1 4-6 5-11 4-6 1-7-1v2l-8 1-3-2-5-1-6-7-2-5-2-1 1-2-2-1h12l1-2 1-1 3-2 7 1 11 1 2-1 2-28 2 4 2 6 4 1v8l3 1 3 11-1 3h-2v2l-5 1h-2l-6 2-5 2-8-3-4-1-2 3 1 2-2 1v4l4-2 9-2 2-1v3l12-4 10-6 2-1 1-9-1-9h-2l2-18-1-5z" fill="#68AD21"/>
<path transform="translate(832,1534)" d="m0 0h7l6 3 8 12 9 12 1-26 1-1h6l1 1v41l-1 1h-6l-5-5-9-11-8-12-1-1-1 29h-7l-2-2v-39z" fill="#70BB21"/>
<path transform="translate(1135,1458)" d="m0 0 5 1 12 5 21 6 2 1 2-2 3 3 6 2v6h-2l-1 3-8 3h-2l1-3 3-1 2-4h-2l-1 3-4 2-7 2-10 1-5-1v2l-5-1-2-2-7-1-5-1-2-4-2-7 6-11z" fill="#68AD21"/>
<path transform="translate(730,819)" d="m0 0 2 2 8 22 12 25 10 16 12 16 9 11 9 10 10 10 1 5-2 1v3l-8-7-4-3v-2h-5l4 2 4 5 10 8 1 4-1-2-6-1-6-4-3 1-2-1-1-5-5-2-3-3 1-5 3 1 1-4-3-2-2 3-3-2-1-5-4-1-1-5-7 1-1-4 2-6 2 1v3l6 1 1 4 1-1-3-7-3-5-5-4-2-5v-5h-2l-3-9-5-4-4-7-4-4 1-4h-2l-4-8-3-9 1-6-3-1z" fill="#68AE21"/>
<path transform="translate(708,1534)" d="m0 0h6l6 4 9 11 8 11 2 1v-27h6l2 4v38l-1 1h-6l-5-4-10-14-8-11-2-1 1 7v23l-1 1h-5l-2-2z" fill="#70BB21"/>
<path transform="translate(855,970)" d="m0 0 6 2 15 7 27 10 18 5 40 7 1 2h-14l-18-1-49-8-28-8-3-1-1-5-6-1-2-3 1-2h4l3-3 5 3z" fill="#69AE21"/>
<path transform="translate(590,1249)" d="m0 0 6 2h3l3 1 7-2 1 6-4 3-11-3v2h2v7l1 2-3 5h2l2-2h2l-1 3h-2l-1 4-15 10-15 13-10 7-1-4 10-19 9-16 10-17h5z" fill="#68AE21"/>
<path transform="translate(1272,1374)" d="m0 0h16l12 3 3 5-1 6 1-1 1 4-1 3-4-1 2 4-1 2-10-2-3-1v-4l5-2 1-3h-11l-2 2 4 4-3 5h-5v-4l3-1-6 1-2 1-4-2 3-2 3-1v-2l-8 3-11 1h-3l-3-2-6 2-3-5 2-4 13-5 11-3z" fill="#68AD21"/>
<path transform="translate(666,1533)" d="m0 0h9l9 3 7 8 2 7v10l-3 7-6 7-7 4h-13l-7-4-6-7-3-7v-12l4-9 6-5zm-1 6-6 5-3 6-1 6 3 8 6 7 5 2 6-1 5-4 3-6 1-11-3-9-5-3z" fill="#71BC21"/>
<path transform="translate(1114,1533)" d="m0 0 23 1 6 3 2 5-1 10-4 6 1 5 5 11v3h-8l-3-5-6-11-7-1-1 13-1 4h-7l-1-5v-31l1-7zm7 6-1 10 1 3 7 1 7-2 1-1v-8l-4-3z" fill="#70BB21"/>
<path transform="translate(1443,1375)" d="m0 0h21v2l6 1 7 3 2 1v3l6 1-4 4-9-1v2l-9 1-4 1h2v2l2 1-12-2h-6l-5 1h-4l2-5-6 1-5-1-5 2-3-7 8-5z" fill="#68AD21"/>
<path transform="translate(1e3 1534)" d="m0 0 8 1v16h21l1-16h6l1 1 1 14v27h-7l-1-1-1-18-21 1v18h-7l-1-4-1-29v-9z" fill="#70BB21"/>
<path transform="translate(1245,1533)" d="m0 0 5 1 3 5 9 20 5 16-1 4-5-1-6-9h-16l-8 8-6 1-1-4 11-25 5-13zm-1 12-5 12v4l4 1h10l-1-7-5-9z" fill="#70BB21"/>
<path transform="translate(1166,1345)" d="m0 0h21l16 3 2 4 2 1-2 3-2-1-1 4 2 4-7 1-3-3-8-2-5 1h-7v2l-11 3-9-2-2-3h-5l-1-3 5-3 3-1v-5z" fill="#68AE21"/>
<path transform="translate(1076,1533)" d="m0 0 4 1 3 4 14 34 1 5-5 1-4-2-4-8h-10l-8 1-4 8-7 1-2-1 3-10 13-30 3-3zm0 10-5 10-2 5v4h14l1-2-5-16z" fill="#70BB21"/>
<path transform="translate(845,416)" d="m0 0 9 1-4 5-7 7h-2v2l-2 1 1 1 2 1-5 4h-3v-2l-6 1-2 8-7 1-4 2-2-1v2h-2v2l-7 2-5 3h-2v2l-12 6-6 4-2-1 6-5 8-8 4-2 7 1 2-7 5-5v-2h2v-3l11-2 7-6-1-2h-2l-3 4-8 3-3 1v-2l-2-1 2-4 5-1 7-3h6l1-3 4-1 10-1z" fill="#68AD21"/>
<path transform="translate(889,1534)" d="m0 0h27l1 5-1 1h-20l-1 11 21 1v6l-4 1h-15v11l1 1 20 1 1 4-2 2h-22l-7-2v-41z" fill="#70BB21"/>
<path transform="translate(957,1534)" d="m0 0h24l6 4 2 5v11l-4 5-13 4-7 2-1 12h-6l-1-2zm8 5-1 1v14l1 2h10l5-3 1-2-1-9-5-3z" fill="#71BC21"/>
<path transform="translate(1293,1533)" d="m0 0h15l6 3 1 5-6-1-3-1h-8l-6 3-5 6-1 3v9l3 6 5 4 5 2h7l6-3 4 1-2 4-5 4-2 1h-13l-7-3-7-6-4-8v-12l3-8 8-7z" fill="#70BB21"/>
<path transform="translate(563,1378)" d="m0 0h9l4 1v2l5 1 3 5h-3l-1-2h-2l-1 2-6 2 2 17 1 1 3-4 2-1 1-8 2-1 1 11-2 8-4-1-1 17v15l-1 2h-2l-1 8-2-2-1-9 1-4-1-1-1 11-2-2 2-25 2 4v10l2-1-2-4 2-6-1-6-2-2-1-3-1-7-3-3-2 2-2-4v-20z" fill="#68AD21"/>
<path transform="translate(1374,788)" d="m0 0 2 4v5h2l1-2-1 11-2-4-3 4-2 11-3 9-3 12v10l-1 2-6 1v3 6l-4 2-1 2 1-4-2-1-1 3-1-3 2-6h2l-2-9 5-25h2l2-5h1l1 6 3-1-2-8 1-3-1-6 1 2 1-1-2-7v-7l3 1 1 7 3-1-2-2 3-2z" fill="#70BB21"/>
<path transform="translate(765,1378)" d="m0 0 3 1v2l5-1-4-2h6v2l13-1 1 3h-5l2 2v3l2-1v-2l5-1 1 4h6l4-1 2 2-1 3h-2l-1 4-6-1v-2l-4 1-3-3-4-1-15-1-7 1-2 1-2-1-1 4h-2l-1 2v-2h-2l-1 2-3-1v2l-9-2 1-5h-2l-2 9h-1l-1-11 4-4 8-3 7 1v2l5-3z" fill="#68AE21"/>
<path transform="translate(653,875)" d="m0 0 3 1 3 6h3v6l8 7 2 4 7 12 4 5v2h2l5 7 4 2v3h2v2h5l1 6h2l1-3 4 2 4 4 3 4 2 1v2h2l1-2 11 12 4 5 8 7 3 4-6-1-14-9-14-12-12-11-12-12-9-11-11-15-11-17-5-9z" fill="#70BB21"/>
<path transform="translate(1032,1332)" d="m0 0h11l3 5-1 5h-2v7h-2l-3 12-1 11-1 3-4 2-1-8-1-5-2-11-5-1-1-5 1-4h-2v-8l5-2z" fill="#68AD21"/>
<path transform="translate(1598,1424)" d="m0 0 5 2 1 14 1 11 2 5v7l1 9v3l-2 5-4 4-4-1-4-3v-2h-2l-2-4 3-7 1-18 1-1 1-11 2-5-1-5z" fill="#68AD21"/>
<path transform="translate(1361,1442)" d="m0 0 5 1 5 7 1 5-1 2h2v8l1 7 1 6-3 4-7 3-8-1-2-7 1-1v-11l3-7z" fill="#68AD21"/>
<path transform="translate(1018,881)" d="m0 0 4 2 2 7 1 2 5-1 1 3h4v-2h6l1 3h4l-1 7-14 1-2-1v-2h-3v-2l-4-1v2h2l3 3 4 3 4 1v-2h2v2h2l2 2 2 4-2 2-15-2-8-4-4-5-3-7 2-8h4z" fill="#70BB21"/>
<path transform="translate(1355,1533)" d="m0 0h6l-2 5-11 19-4 20-4 1-2-2-1-16-8-16-5-7v-3h7l5 5 4 7 2 5 2-2 5-12 3-3z" fill="#70BB21"/>
<path transform="translate(765,1534)" d="m0 0h8l1 1 1 36h19v6l-1 1h-25l-2-1-1-6z" fill="#70BB21"/>
<path transform="translate(971,812)" d="m0 0 2 2 1 5 4-2v2h2l3 6-5 5 1 8v4h2l1 2h2l2 5-2 5-6 2-1 2 5 2 1 3 2 2-6-1-10-4v-41h1z" fill="#68AD21"/>
<path transform="translate(955,590)" d="m0 0h12l10 4 7 5 4 8v5l-4-5-3-6-3-1-1-2h-2v7l-2 2h-4v2l-11 3-2-1v2l-4-2-1-1v-12l2-7z" fill="#68AE21"/>
<path transform="translate(682,547)" d="m0 0h2l-2 5-1 3-3 3 1 4-12 22-10 24-3 8-3 2-1 8h-3l-2 3-2-2 1-8h2l1-6 2-3h2l-1-4 3-7 8-20 2-2 4-9h2l1-4 7-10 2-3h2z" fill="#68AE21"/>
<path transform="translate(1478,1466)" d="m0 0h4l1 4h2l-1 7-5 3h-3v2l-9 3-15 1-4 1h-5v-2h-3v-2h-6l1-4-1-2 2-4 3 1h5v2l5-1 6 2h10l3-3 5-2h4l-1-4h2z" fill="#68AD21"/>
<path transform="translate(1545,1451)" d="m0 0h2l4 11 1 8v8l-4 4h-2l-1 3h-8l-3-2-1-5 1-12 4-10 2-3h5z" fill="#68AD21"/>
<path transform="translate(959,387)" d="m0 0h47l11 1 1 2-8 2-4 2-7 1-10-1h-36l-5 1-3-2v-4z" fill="#68AD21"/>
<path transform="translate(1032,1407)" d="m0 0 2 2v10h2l1-4 2 7 1 4-1 3 1 1v17l-1 13-5-3-1-1-3-4-2-9-2-2 3-9 2-7v-3l-1-9z" fill="#68AD21"/>
<path transform="translate(628,701)" d="m0 0 2 3v10l1 2h-2l2 7-2 7 2 1v10l-3 3v5l3-1v11l2 3-1 4v6l-5 1-1-4-3-1-1-12 2-7-1-5 2-2 1-11-3-5 2-1 2-5-2-2v-7l-1-6z" fill="#68AD21"/>
<path transform="translate(807,1534)" d="m0 0h8v43l-7 1-2-1v-42z" fill="#70BB21"/>
<path transform="translate(959,884)" d="m0 0 4 1-1 3-2 1 1 7 2 2-4 2h-3l2 5 5 2 1 2 5-5 5-2 1-2h2l-1-3 4-2 5-5 2 3 1 2-6 9-7 6-12 4h-6l-4-2-2-4v-7l2-11 2 1 2-4h2z" fill="#70BB21"/>
<path transform="translate(635,1332)" d="m0 0h8v6h2l-1 4h-2l-1 5-3 3-5 1-3-1-4 2 1 3-2 2-3 2v-10l-1-14 7-2z" fill="#68AD21"/>
<path transform="translate(1052,1470)" d="m0 0 7 1 10 3 1 2v10h-2v2l-6 2-1-2-10-1-2-3-5-2-1-4 3-5 6-1z" fill="#68AE21"/>
<path transform="translate(832,1535)" d="m0 0 5 2 3 3 5 9-1 2-3-3-1 29h-7l-2-2v-39z" fill="#68AE21"/>
<path transform="translate(1280,1093)" d="m0 0h4l1 3-3 4-6 3 1 4-8 6-2 2-9 3-5 2-4-2 2-3h3l-4-4v-2l16-9 7-4 7-1z" fill="#68AD21"/>
<path transform="translate(998,571)" d="m0 0 5 2 6 9 1 4-6 11-3 4-4-2-5-7-2-5 1-5 6-10z" fill="#69AE21"/>
<path transform="translate(1202,1537)" d="m0 0 3 1 1 5 3-2 1 2 2 25v9l-7 1-2-1-1-3v-22h-2l-3 9-1-3 4-11z" fill="#69AF21"/>
<path transform="translate(1346,1378)" d="m0 0h5v3l2 1-1 5h-2l-1 5-4 5 6 2v2h-15l-2-2-1-6v-12l3-2z" fill="#68AE21"/>
<path transform="translate(893,986)" d="m0 0 28 8 40 7 1 2h-14l-18-1-32-5-1-2-3-1-1-3v-2z" fill="#6AB021"/>
<path transform="translate(396,1451)" d="m0 0 3 3v5l4 4 3 1v4h-2l2 5-2 9h-2v2l-10-1-2-4v-11l3-8z" fill="#68AD22"/>
<path transform="translate(830,742)" d="m0 0h10l9 3 1 4-5 5-6 3-6 1-7-2-6-4 1-5 6-4z" fill="#68AE21"/>
<path transform="translate(999,898)" d="m0 0h2l6 10 1 9-5 10-3 1-5-5-3-5v-7z" fill="#68AE21"/>
<path transform="translate(752,1451)" d="m0 0 4 2 3 9 1 2 2-2 1 7v11h-1l-1-5-2 3h-2v3l-2-1v-8l-4 4-7-2 1-10 4-9z" fill="#68AD21"/>
<path transform="translate(1162,742)" d="m0 0 8 1 6 3 2 4-4 4-7 3h-7l-12-6v-3l10-5z" fill="#68AE21"/>
<path transform="translate(1395,1379)" d="m0 0h14l1 2-1 12-1 5-7-2-3-2h-7l-6-3v-4h6l2-4z" fill="#68AE21"/>
<path transform="translate(1257,1059)" d="m0 0 3 1-2 5-1 2 5-2v2h3l2-2v5 3l-10 6-10 4-2-4h-2l1-4 3-7 8-7h2z" fill="#70BB21"/>
<path transform="translate(891,721)" d="m0 0h42l-5 4-14 5-6 1-6-4-8 1-6 1 1-5z" fill="#68AD21"/>
<path transform="translate(1353,754)" d="m0 0h1v13l-5 24-6 24-9 26-3 3v-9l3-7 2-6 5-12 2-10 3-11 2-15h2l1-8-1-6 1-5z" fill="#69B021"/>
<path transform="translate(1270,1026)" d="m0 0 4 4-1 9 2 6h1l-1 12-1-3h-2l-2-10h-3l-1 5-4 2-1-4-2 5h-1v-16l2-4 2 6 5-10z" fill="#70BB21"/>
<path transform="translate(624,670)" d="m0 0 2 4h6l3 5 1 5-1 4 1 7-1 12 1 2-2 5 1 2v7 4l-3-1-1-14v-23h-2v-2h-2l-1-2-1-10-3-1z" fill="#68AD22"/>
<path transform="translate(685,1378)" d="m0 0h20l-1 2-5 2 1 4 6-1-3 4-17 3-6-3 1-6z" fill="#68AD21"/>
<path transform="translate(1137,1130)" d="m0 0h15l-1 4-8 4 4 4h2l1-2 3 3-2 1h-12l-4-2v2h-7v-2h2l-2-5 2-4z" fill="#68AD21"/>
<path transform="translate(1033,720)" d="m0 0h23l33 1 1 2-2 3-10 1-7-1-3 1v-2h-6l-4-1h-13l-2 1v-2l-7 1-3-3z" fill="#68AD21"/>
<path transform="translate(905,1459)" d="m0 0h1l-1 8-3 3 3-2 2 2v3l4 2v2h2l-2 6-2 1v-2l-8 2-2-1-1-4 1-2-3-2v-7l2-1 1-3z" fill="#68AD21"/>
<path transform="translate(632,1464)" d="m0 0h6l2 6 1 5-4 8-6 2-5-3v-2h-2v-3h2l2-5 3-5z" fill="#68AE21"/>
<path transform="translate(696,1466)" d="m0 0 5 4 1 2h4l1 3h3l1 3h-2v2l3 3-3 3-4-5-4 1-4-3h-2l-1 2-4-2-2-6 4-2v-2l3-2z" fill="#68AD21"/>
<path transform="translate(1590,1382)" d="m0 0 4 3 7 4 2 5v9l-1 3-4-1-3-6-4-2-5-8z" fill="#68AD22"/>
<path transform="translate(668,865)" d="m0 0 5 1 8 18v3 6l-4 2-3-1-1-6-3-7 2-4v-3l-4-1v-2h-3l1-3z" fill="#6BB221"/>
<path transform="translate(1355,1533)" d="m0 0h6l-2 5-11 18-5-1-1-2 6-15 4-4z" fill="#69AE21"/>
<path transform="translate(1543,1459)" d="m0 0 4 1 1 7-1 13-4 2h-6v-7l2-1-1-8 3-5h2z" fill="#71BC21"/>
<path transform="translate(1353,676)" d="m0 0 3 2 2 8v4h-2v53l-1 5h-1l-1-43-2-16v-10z" fill="#6AB021"/>
<path transform="translate(998,617)" d="m0 0h2l5 9-1 4h-2v-2l-7-1 4 2 1 2-7 1-4 4-5 3-7 2-2 4-1-2h-2l-1 7h-1l1-9 5-3 10-5 9-10z" fill="#69AF21"/>
<path transform="translate(1202,1534)" d="m0 0h7l1 2v7l-4 1-2-6-2-1-1 10-5 14-3-1 1-4h-2l-1-5 5-10 4-6z" fill="#70BB21"/>
<path transform="translate(1403,1035)" d="m0 0 3 1v3h7v5l2 1-7 2h-6v-2l-9-1-3-3v-2l5-3z" fill="#71BC21"/>
<path transform="translate(1039,608)" d="m0 0h2v3h2v6l3-1-2 6-7 8-5 2-9-2-3-3 9-3 3 3h3l1-3 3-1 1-4h2l-2-4-5-2 2-4z" fill="#71BC21"/>
<path transform="translate(1359,637)" d="m0 0h5l7 21 6 26v7l-3-1-1-13-3-3v-7l-2-1-1-5-2-12-3-5 1-5-4-1z" fill="#69B021"/>
<path transform="translate(1205,1545)" d="m0 0h2l1 2v28l-1 2 3 1-7-1-1-3v-11l2-17z" fill="#71BC21"/>
<path transform="translate(1225,1123)" d="m0 0h3l-2 5-6 1-1 2-9 3v2h-3v2l-2 2v2l-5 1 1-2-2-1-2 5h-2v-2l-7 2-4 1v-2l25-12z" fill="#6AB021"/>
<path transform="translate(696,1377)" d="m0 0h23l-2 4-6 7-5-1v-2l-6 2-2-2 1-4 5-2-8-1z" fill="#6AB121"/>
<path transform="translate(411,1351)" d="m0 0 11 1v2l-9 4-2-1v2l-4 2v2l-6 1v-5l-4-1-2 3v-5l3-1 2-2z" fill="#68AD21"/>
<path transform="translate(839,1546)" d="m0 0h1v31h-7l-2-2 1-3 2-1 1-15 2-3 2 1z" fill="#71BC21"/>
<path transform="translate(773,1556)" d="m0 0h1l1 15h19v6h-17l-3-1-2-7v-8z" fill="#68AE21"/>
<path transform="translate(777,442)" d="m0 0 2 1 1 1h2v3l-9 3v2h-2v2l-9 6-3-1-1-4 13-9z" fill="#6FB921"/>
<path transform="translate(801,1453)" d="m0 0h2l-1 8 1 3-1 2 5-2 2 1 2 6 3-1v2h-4l-1 4h-3l1-1-2-2-2-5-3 10-2-4v-12z" fill="#68AD21"/>
<path transform="translate(753,1457)" d="m0 0 2 4 3-1 2 4 2-2 1 7v11h-1l-1-5-2 3h-2v3l-2-1v-13h-3l-1-9z" fill="#68AE21"/>
<path transform="translate(728,584)" d="m0 0 2 1-1 4h2v2h2l-1 2-1 1 1 6-1-3-2 3h-2l-2-2h-3l-1 5-4 1-3-3 4-2h2v-5h2l1-4z" fill="#68AD21"/>
<path transform="translate(976,616)" d="m0 0h7l1 2 1-2h2l-1 5-9 8-5 1 1-2h2l-1-3 3-3-1-2-6 2-6-2-1-2 8 1z" fill="#68AD21"/>
<path transform="translate(981,882)" d="m0 0 4 2 1 2-2 3v-2l-3 3h-2l-1 3-2 1-1 3-5 4-4-2 4-8 1-3 5-1 2 1-1-3 4-2z" fill="#70BB21"/>
<path transform="translate(663,559)" d="m0 0 3 1h-2l2 6-5 7-5 3-3 8-3-2 1-5 8-14 3-1z" fill="#68AE21"/>
<path transform="translate(1600,1452)" d="m0 0 3 4 1 6v8l-1 7-4 2-2-5-1-6 3-8v-7z" fill="#71BC21"/>
<path transform="translate(1057,1472)" d="m0 0 9 1-2 4-4 2-2 3-3 3-4-1-3-4 1-5 3 1v-2z" fill="#70BB21"/>
<path transform="translate(1177,1147)" d="m0 0 3 1-3 3-4 1v2l-8 4h-2v-2l-3 1-4 4-4-1v2l-7 1v-2l18-8z" fill="#6AB021"/>
<path transform="translate(1612,1431)" d="m0 0 2 4v49l-3-1 1-15-1-9v-22z" fill="#68AD22"/>
<path transform="translate(631,1335)" d="m0 0h2v3h2l4 5-1 4h-8l-3-3-1 2-2-5 1-3z" fill="#70BB21"/>
<path transform="translate(1159,1115)" d="m0 0h2l1 7 8-4 2-2-1 8-2 5-5 1-1-4-1-2-6 1v-8z" fill="#68AD21"/>
<path transform="translate(930,1351)" d="m0 0 4 1 13-1v2h-2l-1 2-6 1 1 4h-3l-1-2-2 4-5-1-1-4h2l1-2-1-1z" fill="#68AD21"/>
<path transform="translate(1167,1539)" d="m0 0 4 4 1 5-3-4-1 9-8 1 1-14h5z" fill="#68AD21"/>
<path transform="translate(1401,1335)" d="m0 0 1 2 4-2v2l2 1-1 1 2 1 1-3h5v3l-5 2-3 2-13-1-1-2h2l-1-3 7-1z" fill="#68AD21"/>
<path transform="translate(1270,1428)" d="m0 0 9 2 4 4-2 2h-8l-4 2-1 2h-5l1-3 7-2v-2l4-1 1-2-9 2-5 5h-3l1-4 6-4 4 1z" fill="#68AD22"/>
<path transform="translate(1412,1030)" d="m0 0 7 4 3 3v7l-2 4-1-4-1-6h-2l-1 2-6-5v-2h-2v-2z" fill="#6FBA21"/>
<path transform="translate(671,878)" d="m0 0h2l5 5 3 4v6l-4 2-3-1-1-6-3-7z" fill="#70BB21"/>
<path transform="translate(1096,721)" d="m0 0h10l3 3 1 7-2 1-3-2v-2l-7 1-2-4z" fill="#68AD21"/>
<path transform="translate(1202,1537)" d="m0 0 3 1 2 7-2 1-2 17h-1v-11h-2l-3 9-1-3 4-11z" fill="#68AD21"/>
<path transform="translate(633,621)" d="m0 0h4v5l-3 9-3 6h-2l-1-7 4-12z" fill="#6CB321"/>
<path transform="translate(874,783)" d="m0 0 3 1-6 7-9 3h-5l1-3h2l1-2 3 1 2-4h3l1-2h3z" fill="#71BC21"/>
<path transform="translate(732,656)" d="m0 0 1 4-6 20-1 5-4 1v-6l4-9 1-4 3-7z" fill="#69AF21"/>
<path transform="translate(858,732)" d="m0 0h7l4 4-5 2h-10l-3-1 1-4 6 1z" fill="#71BC21"/>
<path transform="translate(836,959)" d="m0 0 5 2 13 7-2 4-10-2-2-5 3 1v-2l-4-2z" fill="#69AF21"/>
<path transform="translate(1272,1010)" d="m0 0 1 3-3 6-3 8-3 3-1-10v-3l3-1 1-2h3z" fill="#71BC21"/>
<path transform="translate(893,986)" d="m0 0 14 4v4l-3 1v-3l-1 2-7 1-3-3v-3z" fill="#70BB21"/>
<path transform="translate(1369,665)" d="m0 0 4 1 4 18v7l-3-1-1-13-3-3v-7l-2-1z" fill="#69AF21"/>
<path transform="translate(1270,1051)" d="m0 0 1 4-2 9-3-1-1-2-3-1-1-3 1-5 3 1z" fill="#71BC21"/>
<path transform="translate(981,1468)" d="m0 0 9 3 1 6h-11z" fill="#68AD22"/>
<path transform="translate(723,957)" d="m0 0 4 1 2 1 5 1 5 6 5 4-1 2-9-6-4-2v-2h-3v-2l-4-2z" fill="#69AF21"/>
<path transform="translate(632,830)" d="m0 0h3l2 6-1 2h2l5 12 2 4-1 4-3-4-9-23z" fill="#71BC21"/>
<path transform="translate(882,736)" d="m0 0h2l-1 4-4 6-1 3v-2h-2l-1 5-5-2v-3l9-7z" fill="#69AF21"/>
<path transform="translate(621,691)" d="m0 0 2 4v15l-1 11h-1l-2-9 1-6h-1v-5l1-1z" fill="#68AD22"/>
<path transform="translate(1355,1533)" d="m0 0h6l-2 5-5 8-3-4 2-5-1-3z" fill="#70BB21"/>
<path transform="translate(1336,1054)" d="m0 0v3l-3 3-8 6-3 2-4-1 4-4z" fill="#6FB921"/>
<path transform="translate(1060,1272)" d="m0 0 8 1v3l-7 2-5 1-1-3h-2v-2z" fill="#68AD22"/>
<path transform="translate(627,797)" d="m0 0 1 4 1 3v3 2l4-2 2 4-4 1v2h-2l-2-5-3-2 1-9z" fill="#69AF21"/>
<path transform="translate(1168,1103)" d="m0 0h5l4 5-1 3-4-1-1 4-1-6-3-1z" fill="#68AD21"/>
<path transform="translate(1135,1458)" d="m0 0 5 1 6 3-4 2-6-1-1 3-4-1 2-5z" fill="#70BB21"/>
<path transform="translate(628,815)" d="m0 0 5 1 2 7h-2v6h-2l-3-9z" fill="#68AE21"/>
<path transform="translate(704,1379)" d="m0 0 5 2h3l-1 2-11 4-2-2 1-4z" fill="#71BC21"/>
<path transform="translate(752,463)" d="m0 0 3 1-1 2-8 2v2l-4-1v3l-6 2h-3l12-10 3 1z" fill="#6EB721"/>
<path transform="translate(968,871)" d="m0 0 4 2-7 3-5 1-1 4h-2v2l-3-1 4-6 3-3z" fill="#71BC21"/>
<path transform="translate(1034,1343)" d="m0 0h4v8l-1 7-3-1v-6l-2-1v-3h2l-1-3z" fill="#71BC21"/>
<path transform="translate(633,823)" d="m0 0 2 1 1 4 3 1 2 5h-2v2h2v2l-3 1-2-1-1-8-3-1z" fill="#68AD22"/>
<path transform="translate(1394,1334)" d="m0 0 1 3-10 4 1 5-4-2-1-4 2-3z" fill="#68AD22"/>
<path transform="translate(1112,732)" d="m0 0 5 4 5 5 2 4h-3v-2l-4-1v-2l-5-1-1-4z" fill="#6AB021"/>
<path transform="translate(1e3 1537)" d="m0 0 5 1 2 6-5 3-1 2h-2z" fill="#68AE21"/>
<path transform="translate(621,784)" d="m0 0 4 1 2 2v7h-4l-3-4v-5z" fill="#68AD21"/>
<path transform="translate(1272,1374)" d="m0 0h16l12 3-4 2-1-1h-9l-2-2-12-1z" fill="#70BA21"/>
<path transform="translate(1212,1355)" d="m0 0 2 1v2l2 1-1 2h3l1-2-1 6-1 2-3-1-3-2z" fill="#68AE21"/>
<path transform="translate(668,865)" d="m0 0 5 1 2 6-5 2-2-1v-2h-3l1-3z" fill="#70BB21"/>
<path transform="translate(1380,706)" d="m0 0h1l2 17v8h-1v-6l-4-2 1-5-1-4z" fill="#71BC21"/>
<path transform="translate(1271,1051)" d="m0 0 1 3h2l-1 9-3 4-2-6z" fill="#69AF21"/>
<path transform="translate(1366,1452)" d="m0 0h3l1 7 1 4-4 3-1-5 1-2h-2v-6z" fill="#70BB21"/>
<path transform="translate(1128,1121)" d="m0 0 5 5-3 2h-6l-2-1v-2z" fill="#68AD22"/>
<path transform="translate(1377,753)" d="m0 0 4 3-2 11-1 2-2-1 1-3-2-9z" fill="#70BB21"/>
<path transform="translate(1353,754)" d="m0 0h1v13l-2 4-1-3-1-8 1-5z" fill="#68AE21"/>
<path transform="translate(1363,711)" d="m0 0 3 4v11l-2 4h-1z" fill="#69B021"/>
<path transform="translate(628,1333)" d="m0 0 3 1-4 4h-2l-1 6-2-1-1-8z" fill="#6BB221"/>
<path transform="translate(1482,1396)" d="m0 0h5l-1 7-3 2-3-3-2-4z" fill="#68AD22"/>
<path transform="translate(645,634)" d="m0 0 2 2-1 3v6h-3l-1-1-1 5-1-2 2-9 2-2z" fill="#68AE21"/>
<path transform="translate(709,1478)" d="m0 0 4 1 6 10v2l-4-1-1-6-3-1v-2l-3-1z" fill="#6CB421"/>
<path transform="translate(1113,1544)" d="m0 0h2l1 7-1 9-2 1-1-10z" fill="#68AD22"/>
<path transform="translate(479,1479)" d="m0 0h3v2l4 1v7h-6v-2h2l-1-7z" fill="#68AD21"/>
<path transform="translate(563,1378)" d="m0 0h4v3l-5 2-1 18h-1v-20z" fill="#71BC21"/>
<path transform="translate(1549,1336)" d="m0 0 2 4-1 3-1-3-5 2-4 3 1-5 3-3z" fill="#68AD22"/>
<path transform="translate(724,952)" d="m0 0 4 2 4 5-4 1-8-6z" fill="#6EB821"/>
<path transform="translate(1217,1086)" d="m0 0 3 4v2h5l1 2-4 2-5-1-1-3z" fill="#71BC21"/>
<path transform="translate(655,856)" d="m0 0 4 1 3 9-4 1-3-7 1-2-2-1z" fill="#70BA21"/>
<path transform="translate(1355,833)" d="m0 0 1 3 2-2 3-1-1 6-4 1-2 5h-1l1-10z" fill="#69AF21"/>
<path transform="translate(1286,772)" d="m0 0h3l-2 18h-2v-11z" fill="#69AF21"/>
<path transform="translate(1364,771)" d="m0 0 3 3 1 9-2 2-2-5h-1v-8z" fill="#70BB21"/>
<path transform="translate(732,656)" d="m0 0 1 4-4 13-3-2 1-4 3-7z" fill="#6AB121"/>
<path transform="translate(1191,1552)" d="m0 0 2 2-1 2h2l1-2-2 11-1-4-3-1 1-7z" fill="#68AE21"/>
<path transform="translate(952,887)" d="m0 0h4l-1 10-2 1-2 3v-10z" fill="#6BB221"/>
<path transform="translate(1283,1538)" d="m0 0h2v4l-3 5-3 1-1-4z" fill="#68AE21"/>
<path transform="translate(1350,608)" d="m0 0 3 3 5 11v2l-3-1-5-10z" fill="#6AB021"/>
<path transform="translate(1199,1079)" d="m0 0 2 2-6 11-2-2 3-8h2z" fill="#71BC21"/>
<path transform="translate(1361,814)" d="m0 0h1v11l-3 1-2-2v-5h2z" fill="#6DB621"/>
<path transform="translate(753,1457)" d="m0 0 2 4 2 1 1 4-5 1h-1l-1-9z" fill="#71BC21"/>
<path transform="translate(712,937)" d="m0 0 8 8v3l-5-2-3-5z" fill="#6AB021"/>
<path transform="translate(1308,1073)" d="m0 0h2l1 3-4 2-2 2-3 1 1-5z" fill="#6AB021"/>
<path transform="translate(1286,735)" d="m0 0h2l2 7-1 4-2-1-1 2z" fill="#68AD21"/>
<path transform="translate(633,621)" d="m0 0h4v5l-2 6-2-1-1-9z" fill="#68AD21"/>
<path transform="translate(876,743)" d="m0 0 1 3h-2v6l-5-2v-3z" fill="#6BB321"/>
<path transform="translate(752,585)" d="m0 0 2 1-2 3h-2v2l-4 2-1-3 4-4z" fill="#68AD22"/>
<path transform="translate(944,1439)" d="m0 0 3 1-1 1 3 2-3 2h-5l-1-2h2v-2h2z" fill="#68AD22"/>
<path transform="translate(1369,655)" d="m0 0 2 3 1 7h-3-2l1-9z" fill="#6CB521"/>
<path transform="translate(993,628)" d="m0 0 7 2-4 1-6 3-1 2-3-1z" fill="#68AD22"/>
<path transform="translate(1301,532)" d="m0 0 4 2 5 7h-3l-4-4z" fill="#69AF21"/>
<path transform="translate(585,1386)" d="m0 0h3l1 7h-4z" fill="#68AD22"/>
<path transform="translate(969,842)" d="m0 0h1l1 16 4 4-6-2z" fill="#71BC21"/>
<path transform="translate(627,806)" d="m0 0 2 1v2l4-2 2 4-4 1v2h-2l-2-5-2-2z" fill="#68AD22"/>
<path transform="translate(1359,693)" d="m0 0 3 1 1 8-2 2-2-5z" fill="#69AF21"/>
<path transform="translate(645,860)" d="m0 0h2l5 9-1 3-3-4-3-6z" fill="#71BC21"/>
<path transform="translate(630,818)" d="m0 0 1 3h2v8h-2l-2-9z" fill="#71BC21"/>
<path transform="translate(815,536)" d="m0 0h2l-1 3-9 3-5 1v-2l12-4z" fill="#68AD22"/>
</svg>
